<?xml version="1.0" encoding="utf-8"?>
<!-- Generator: Adobe Illustrator 25.2.3, SVG Export Plug-In . SVG Version: 6.00 Build 0)  -->
<svg version="1.1"
	 id="Layer_1" xmlns:cc="http://creativecommons.org/ns#" xmlns:dc="http://purl.org/dc/elements/1.1/" xmlns:rdf="http://www.w3.org/1999/02/22-rdf-syntax-ns#"
	 xmlns="http://www.w3.org/2000/svg" xmlns:xlink="http://www.w3.org/1999/xlink" x="0px" y="0px" viewBox="0 0 170.9 180.6"
	 style="enable-background:new 0 0 170.9 180.6;" xml:space="preserve">
<style type="text/css">
	.st0{fill:#FFFFFF;}
</style>
<g>
	<path d="M0,0h170.9v180.6H0.1L0,0L0,0z"/>
	<path class="st0" d="M167.2,3.9V177H3.7L3.6,3.9H167.2z"/>
	<path d="M34.8,24.1l-4.9,5.2l-0.1,8.9l-8.1-7.7h-5.4v6l6.7,7.7h-7L12,48.6l4.1,5l7.4,0l-6.2,5.6l0.1,7.2h6.1l9.2-8.1l12.8,27.5
		h14.2v7l-25.9-9.7l-9,9.5L59,128.7h-9.3l-3.1,3.2v3.9l3.3,3.3l6.1,0l-3.6,4.3v6.9h6.5l6-6.9l-2.6,5.5v4.6h8.5l4.1-8.9l0.4-0.4
		l0.1,6.3l2.2,3h3.7l2.5-2.4v-20.2h2.5V151l2.1,2.5h4.1l2-2.4v-7.7l5.4,10.1h8V149l-2.2-4.7l5.7,6.1h7.1l0-5.6l-3.5-5.1l5.5-0.2l4-4
		v-2.9l-3.7-3.9h-9.3l33.9-36.1l-9.7-9.5l-24.9,9.7v-7h14.2L137.6,59l8.9,7.7h6.4v-7.3l-6.6-6.3h8l3.7-4.5l-3.6-4.2h-7.5l7-7.5v-6
		h-6.2l-7.4,7.5l-0.1-8.2l-4.8-5.7l-5.3,5.7l-0.2,10.5l-5.3-4.4h-6.1v5.6l8.9,9.6l-12.2,13.1l-7.1-4.2V47L85.8,33.3L62.6,47v13.4
		l-7.5,3.9l-12.5-13l8.7-9.4v-5.5h-7l-4.2,4.3L40,29.3L34.8,24.1z M135.3,29.8l1,1.4v12.2h4.2l8.8-9.5h1.3v1.4l-8.2,9.1v3.1h10.3
		l1.1,1.2l-1.1,1.4h-10.3v4.8l6.5,5.8l0.1,1.6l-1.6-0.1l-9.1-7.9H135l-12.2,27.3h-15.7v17.1l28.1-11.1l4.9,5.2l-38,39.6h16.6
		l1.5,1.6l-1.5,1.6h-10.2v2.1l6.6,7.7L115,147h-1.4l-10-11.3h-6.3l6.9,14.3h-2.5l-7.3-14.3h-4v13.8l-0.7,0.6l-0.6-0.6v-20.3l15.6-16
		l-2.5-2.8l-17.6,17.5L68,110.4l-2.3,2.8l15,16v20.3l-0.7,0.6l-0.7-0.6v-13.8h-3.7l-7.2,14.3h-2.3l6.5-14.3h-6L57.3,147h-1.6l0-1.5
		l6.3-8v-1.9H51.9l-1.2-1.5l1-1.7h16.1L30.2,92.8l4.6-5.2l28.6,11V81.6H46.8L34.7,53.9h-2.9l-9.3,8.7l-2.1,0l-0.1-1.7l7.4-6.5v-4.3
		H17.1l-1.4-1.4l1.4-1.3h10.5l0-3l-8-9.1v-1.2h1.3l8.9,9.7h3.6V31.3l1.5-1.4l1.3,1.4v15h3.6l6.2-6.6h1.8V41l-8.7,9.3v3.4l15.6,15.6
		l11.7-6.1V49.1l19.4-11.7l18.6,11.7v14.8l10.9,5.8l16.7-17.6l-9.4-10.7v-1.5h1.6l6.5,6.8h3l0.1-15.4L135.3,29.8z M85.8,40.2
		L68.3,50.8v14.3l-13.7,7L37.8,55.2l10.8,24.3h16.8v22.7L35.7,90.6l-1.4,2.1l37.2,39.7h2.1l2.5-4.9l-13.6-14.7l5.1-6.2l17.2,17.6
		l17.9-17.6l5.5,6.2l-14.3,14.7l1.8,4.9h2.4l38.2-39.7l-1.6-2.1L105,102.4V79.5h16.6L132.2,55l-16.7,17.2l-13-6.8V50.6L85.8,40.2z
		 M30.4,46.9v4.7h4.5v-4.7L30.4,46.9z M134.9,47.2V52h4.8v-4.9H134.9z"/>
</g>
</svg>
