<?xml version="1.0" encoding="utf-8"?>
<!-- Generator: Adobe Illustrator 25.2.3, SVG Export Plug-In . SVG Version: 6.00 Build 0)  -->
<svg version="1.1"
	 id="Layer_1" xmlns:cc="http://creativecommons.org/ns#" xmlns:dc="http://purl.org/dc/elements/1.1/" xmlns:rdf="http://www.w3.org/1999/02/22-rdf-syntax-ns#"
	 xmlns="http://www.w3.org/2000/svg" xmlns:xlink="http://www.w3.org/1999/xlink" x="0px" y="0px" viewBox="0 0 187.5 96"
	 style="enable-background:new 0 0 187.5 96;" xml:space="preserve">
<style type="text/css">
	.st0{fill:#FFFFFF;}
</style>
<g>
	<path d="M178.8,18.5c-0.2,0-0.3,0-0.5,0c-0.4,0.1-0.9,0-1.3,0.2c-1.5,0.3-2.7,1.5-3.1,3v36.1c0,1.7,0.6,3.2,2,4.1
		c1.3,1,3.7,1.1,5.1,0.4c1.4-0.8,2.2-2.1,2.5-3.7V40.3h-4.9v3.3h1.6v13.6l-0.1,1.4c-0.3,0.7-1,0.8-1.7,0.8c-0.7-0.1-1.1-0.5-1.3-1.1
		V23.4c0-0.5-0.1-1.2,0.4-1.4c0.4-0.5,1.2-0.3,1.7-0.3c0.4,0.2,0.7,0.4,0.9,0.8l0.1,9.9h3.1v-9.8c-0.1-1.1-0.5-2.5-1.4-3.1
		C180.8,19,179.9,18.5,178.8,18.5L178.8,18.5z M165.3,18.6c-0.4,0-0.7,0.1-1.1,0l-0.7,0.2c-1.7,0.5-2.9,1.7-3.2,3.5v35.8
		c0,1.3,0.3,2.6,1.2,3.5c1.2,1.2,3.3,1.7,5.1,1.1c1.5-0.4,2.8-1.7,3.1-3.2V22.8c0-1.2-0.5-2.1-1.2-3c-0.7-0.5-1.5-0.9-2.3-1.1
		C166,18.6,165.7,18.6,165.3,18.6L165.3,18.6z M147.6,18.8c-0.6,0-0.9,0-0.9,0v44h3.4V40.4c0.4,0,0.9,0.1,1.3,0.1
		c0.7,0.3,1.6,0.7,1.8,1.6v20.6h3.1V43.1c0-1.8-0.6-3.5-1.9-4.5c1-0.6,1.7-1.6,1.9-2.8l0.1-11.9c-0.1-1.2-0.4-2.4-1.2-3.2
		c-0.3-0.4-0.7-0.7-1-0.9C152.9,18.8,149.3,18.7,147.6,18.8L147.6,18.8z M91.1,18.9v44c2.7,0.2,5.3,0,7.3-1.3
		c1.2-0.9,1.8-2.3,1.9-3.9V42.2c0-1.4-0.8-2.6-1.9-3.5c1-0.7,1.7-1.8,1.9-3l0.1-10.2c0-3.9-2.1-5.3-4-6.1
		C94.8,18.8,92.8,19.1,91.1,18.9L91.1,18.9z M103.6,18.9v19.8v19.7l0.3,1.7c0.6,1.6,2,2.6,3.7,2.8c0.7-0.2,1.6-0.1,2.2-0.5
		c1.6-0.7,2.4-2.3,2.6-3.9V18.9h-3.1V55c-0.1,1.4,0.2,3.1-0.4,4.3c-0.3,0.4-0.8,0.5-1.3,0.4c-0.1-0.3-0.5-0.2-0.5-0.5
		c-0.3-0.2-0.3-0.6-0.4-0.9V18.9H103.6z M116.6,18.9v43.9h6.8v-3.7h-3.7V18.9H116.6z M126.7,18.9v43.9h6.8v-3.7h-3.7V18.9H126.7z
		 M136.6,18.9v43.9h3.2V40.4h2V37h-2V22h3.5v-3L136.6,18.9z M164.8,22c0.6,0,1.2,0,1.6,0.4l0.3,0.5v35.8c-0.1,0.6-0.6,0.9-1.1,1.1
		c-0.8,0.1-1.4-0.2-1.8-0.6l-0.2-0.8V22.7C163.8,22.3,164.3,22,164.8,22L164.8,22z M150.2,22.3c1.2,0,2.4,0.6,2.9,1.7
		c0,2.4,0,7.3,0,11.5c-0.3,0.8-1.1,1.3-1.9,1.4c-0.3,0.1-0.7,0.1-0.9-0.1V22.3H150.2z M94.5,22.4c1,0.1,1.9,0.3,2.4,1.1
		c0.5,0.5,0.5,1.3,0.5,2V35c-0.1,1-1.8,1.7-2.8,1.8L94.5,22.4z M94.7,40.5c0.7,0,1.1,0.3,1.7,0.6c0.5,0.4,0.9,1,0.8,1.8v13.8
		c-0.1,1.1-0.5,2.2-1.5,2.7c-0.5,0-0.8,0.3-1.3,0.2V40.5C94.6,40.5,94.6,40.5,94.7,40.5L94.7,40.5z"/>
	<path d="M160.2,69.4c-0.8,0-1.6,0.2-2.1,0.8c-0.5,0.6-0.6,1.4-0.5,2.1c0.1,1.1,1.3,1.2,2.1,1.6c0.8,0.3,1.7,0.3,2.3,0.8
		c0.1,0.2,0.1,0.6,0,0.7c-0.5,0.6-1.5,0.7-2.2,0.5c-0.4-0.3-0.8-0.5-0.8-1h-1.5c0,0.7,0.4,1.5,0.9,1.8c1.1,0.8,3.1,0.9,4.3,0.2
		c0.7-0.4,1.1-1.3,1.1-2.1c0-0.7-0.6-1.4-1.2-1.7l-2.7-0.7c-0.4-0.2-0.9-0.4-0.7-1c0.1-0.4,0.5-0.4,0.7-0.6c0.7-0.1,1.4,0,1.8,0.4
		c0,0.3,0,0.5,0.2,0.6l1.6,0.1c0.1-0.5-0.2-1.1-0.5-1.5c-0.3-0.5-0.8-0.6-1.3-0.8C161.2,69.4,160.7,69.4,160.2,69.4L160.2,69.4z
		 M129.9,69.4c-1.3,0.2-2.5,0.8-3,2.2c-0.5,1.6-0.5,3.6,0.7,4.8c0.9,0.9,2.5,1.2,3.7,0.7c1-0.3,1.9-1.5,1.9-2.6h-1.5
		c-0.2,0.5-0.3,0.9-0.8,1.2c-0.5,0.1-1.1,0.3-1.5,0.1c-0.5-0.3-0.9-0.6-1-1.1c-0.3-1.1-0.3-2.6,0.5-3.4c0.5-0.6,1.3-0.5,2-0.4
		c0.4,0.2,0.7,0.7,0.9,1.1h1.6c-0.1-0.5-0.2-0.9-0.4-1.3C132.5,69.7,131.1,69.5,129.9,69.4z M145.8,69.4c-0.8,0-1.6,0.3-2.1,0.7
		c-1.2,1-1.5,3.1-1.1,4.6c0.4,1.2,1.2,2.2,2.5,2.5c1.4,0.3,2.8,0,3.7-1c1.3-1.3,1.2-3.6,0.5-5.2c-0.4-0.4-0.5-1-1-1.1
		C147.5,69.5,146.6,69.4,145.8,69.4z M107.5,69.4c-1.1,0.1-2,0.6-2.6,1.5c-0.8,1.2-0.8,3.2-0.3,4.5c0.8,1.3,2.1,2.2,3.9,1.9
		c1-0.2,2-0.7,2.5-1.6c0.7-1.3,0.7-3.4,0-4.7c-0.5-0.9-1.4-1.3-2.4-1.6C108.2,69.4,107.8,69.4,107.5,69.4L107.5,69.4z M171.3,69.5
		v1.3h2.3V77h1.6v-6.1h2.2v-1.3L171.3,69.5L171.3,69.5z M180.4,69.5c-0.9,0-1.8,0-2.3,0.1V77c2.1-0.2,4.9,0.7,5.8-1.5
		c0.7-1.4,0.7-3.4,0-4.7l-0.5-0.6c-0.2-0.3-0.5-0.3-0.7-0.5C182.2,69.5,181.3,69.5,180.4,69.5z M167.3,69.5v7.6h5.3v-1.4h-3.7v-6.2
		H167.3z M114.9,69.6c-0.9,0-1.7,0.1-2.4,0.1v7.6c1.9-0.2,4.3,0.6,5.5-0.9c1-1.3,1.1-3.6,0.4-5.2C117.8,69.8,116.3,69.6,114.9,69.6
		L114.9,69.6z M150.5,69.6v7.5h1.5V72l3,5.1h1.6v-7.5h-1.4V75l-3-5.4H150.5z M90.7,69.6h-0.2v7.6h1.7v-2.6c1.2-0.1,2.6,0.3,3.5-0.8
		c0.6-0.7,0.6-1.8,0.4-2.7C95.5,68.9,92.7,69.8,90.7,69.6L90.7,69.6z M133.4,69.6V71h2.2l0.1,6.1h1.6V71h2.2v-1.4H133.4z M140,69.6
		v7.5h1.6v-7.5H140z M124.1,69.6v5.2c-0.1,0.4-0.2,0.8-0.5,1c-0.5,0.3-1.2,0.3-1.7,0.1c-0.3-0.3-0.7-0.6-0.6-1.1v-5.2h-1.6v5
		c0,0.8,0.2,1.6,0.8,2.1c0.9,0.9,2.8,0.8,3.9,0.4c0.6-0.3,1.2-1,1.4-1.8v-5.7H124.1z M100.1,69.6c-0.9,0-1.8,0.1-2.7,0v7.5H99v-2.8
		c0.5,0,1.5,0,2.2,0c0.8,0.4,0.5,1.5,0.6,2.3c0,0.2,0.1,0.4,0.2,0.5h1.7c0-0.1,0-0.3-0.2-0.3c-0.3-1.1,0.2-2.5-0.9-3.2
		c0.6-0.3,1-0.9,1-1.7c0.1-0.7-0.2-1.2-0.6-1.7c-0.1-0.1-0.4-0.1-0.3-0.3C101.8,69.7,100.9,69.6,100.1,69.6z M145.8,70.8
		c0.1,0,0.2,0,0.2,0c0.3,0,0.6,0.1,0.9,0.2c0.3,0.3,0.5,0.4,0.7,0.8c0.5,1,0.4,2.5-0.3,3.5c-0.4,0.4-0.8,0.6-1.4,0.6
		c-0.6-0.1-1.2-0.3-1.5-0.8c-0.5-0.7-0.4-1.9-0.3-2.8c0.1-0.5,0.4-1.1,0.9-1.4C145.3,70.9,145.6,70.8,145.8,70.8z M179.7,70.9
		c1,0.1,2.4-0.4,2.9,0.8c0.3,1,0.4,2.5-0.2,3.4c-0.6,0.8-1.8,0.5-2.7,0.6V70.9z M107.9,70.9c0.2,0,0.5,0,0.7,0.1
		c0.7,0.4,1.1,1.1,1.2,1.9c0.1,0.9,0,2.1-0.8,2.7c-0.5,0.4-1.5,0.6-2.1,0.1c-0.8-0.5-1-1.6-1-2.6c0.1-0.9,0.5-1.8,1.4-2.1
		C107.4,70.9,107.7,70.9,107.9,70.9L107.9,70.9z M93,71c0.7,0,1.3,0,1.7,0.7c0.1,0.4,0.1,0.9-0.2,1.2C94,73.3,93,73,92.3,73.1V71
		C92.5,71,92.7,71,93,71L93,71z M98.9,71c0.9,0.1,2-0.2,2.7,0.3c0.2,0.3,0.2,0.8,0.1,1.2c-0.7,0.8-1.9,0.3-2.8,0.4
		C98.9,72.9,98.9,71,98.9,71z M114.1,71c0.7,0.1,1.7-0.2,2.2,0.3c0.7,0.3,0.8,1.3,0.9,2.1c-0.1,1-0.2,2.1-1.2,2.5h-1.9V71z"/>
	<path d="M1.9,2.8h85.4v90.3H2L1.9,2.8L1.9,2.8z"/>
	<path class="st0" d="M85.5,4.7v86.6H3.8L3.7,4.7H85.5z"/>
	<path d="M19.3,14.9l-2.5,2.6L16.7,22l-4-3.9H10v3l3.3,3.9H9.9l-2,2.1l2,2.5h3.7l-3.1,2.8V36h3l4.6-4l6.4,13.7h7.1v3.5l-13-4.8
		l-4.5,4.7l17.2,18h-4.7l-1.5,1.6v2l1.6,1.6h3l-1.8,2.2V78h3.3l3-3.5l-1.3,2.8v2.3h4.3l2-4.4l0.2-0.2v3.2l1.1,1.5h1.8l1.2-1.2V68.2
		H45v10l1.1,1.3h2l1-1.2v-3.8l2.7,5h4v-2.3l-1.1-2.3l2.8,3h3.6v-2.8l-1.7-2.5l2.8-0.1l2-2V69l-1.9-1.9h-4.6l16.9-18l-4.8-4.7
		l-12.5,4.8v-3.5h7.1l6.2-13.3l4.4,3.8h3.2v-3.7l-3.3-3.2h4l1.9-2.2L79.2,25h-3.8l3.5-3.7v-3h-3.1L72.1,22v-4.1l-2.4-2.8L67,17.9
		l-0.1,5.2l-2.6-2.2h-3v2.8l4.4,4.8l-6.1,6.6L56,33v-6.7l-11.1-6.9l-11.6,6.9V33l-3.8,2l-6.2-6.5l4.4-4.7V21h-3.5L22,23.1v-5.7
		L19.3,14.9z M69.6,17.7l0.5,0.7v6.1h2.1l4.4-4.8h0.7v0.7L73.2,25v1.6h5.1l0.5,0.6l-0.5,0.7h-5.2v2.4l3.3,2.9l0.1,0.8l-0.8-0.1
		l-4.6-4h-1.7l-6.1,13.7h-7.9v8.6l14-5.5l2.5,2.6L53,69h8.3l0.7,0.8l-0.8,0.8h-5.1v1l3.3,3.9v0.8h-0.7l-5-5.7h-3.1l3.5,7.1h-1.2
		l-3.6-7.1h-2v6.9L47,77.8l-0.3-0.3V67.4l7.8-8L53.1,58l-8.8,8.7L35.9,58l-1.1,1.4l7.5,8v10.1L42,77.8l-0.4-0.3v-6.9h-1.9l-3.6,7.1
		H35l3.2-7.1h-3l-4.6,5.7h-0.8v-0.8l3.2-4v-0.9h-5.1l-0.6-0.7l0.5-0.9h8.1L17,49.2l2.3-2.6l14.3,5.5v-8.5h-8.3l-6-13.8h-1.5
		l-4.6,4.3h-1.1v-0.9l3.7-3.3v-2.1h-5.2l-0.7-0.7l0.7-0.7h5.2v-1.5l-4-4.6v-0.6h0.7l4.4,4.8h1.8v-6.3l0.8-0.7l0.6,0.7v7.5h1.8
		l3.1-3.3h0.9v0.7L21.5,28v1.7l7.8,7.8l5.8-3v-7.1l9.7-5.8l9.3,5.8v7.4l5.4,2.9l8.3-8.8l-4.7-5.4v-0.7H64l3.3,3.4h1.5v-7.7
		L69.6,17.7z M44.8,22.9L36,28.2v7.1l-6.8,3.5l-8.4-8.4l5.4,12.1h8.4v11.3L19.8,48l-0.7,1.1L37.7,69h1l1.2-2.5l-6.8-7.4l2.5-3.1
		l8.6,8.8l9-8.8l2.7,3.1l-7.2,7.4l0.9,2.5H51l19-19.9L69.2,48l-14.8,6V42.6h8.3L68,30.3l-8.3,8.6l-6.5-3.4v-7.4L44.8,22.9z
		 M17.1,26.2v2.3h2.3v-2.3H17.1z M69.4,26.4v2.4h2.4v-2.4H69.4z"/>
</g>
</svg>
